<?xml version="1.0" standalone="no"?>
<!DOCTYPE svg PUBLIC "-//W3C//DTD SVG 20010904//EN"
 "http://www.w3.org/TR/2001/REC-SVG-20010904/DTD/svg10.dtd">
<svg version="1.0" xmlns="http://www.w3.org/2000/svg"
 width="274.000000pt" height="252.000000pt" viewBox="0 0 274.000000 252.000000"
 preserveAspectRatio="xMidYMid meet">

<g transform="translate(0.000000,252.000000) scale(0.100000,-0.100000)"
fill="#7A7A7A" stroke="none">
<path d="M1287 2495 c-254 -48 -480 -235 -583 -482 -15 -37 -29 -69 -29 -71
-1 -1 -35 -12 -76 -23 -254 -70 -442 -269 -510 -538 -29 -116 -23 -280 14
-394 104 -319 410 -525 768 -515 l104 3 3 348 2 347 -123 0 -123 0 1 -240 c0
-271 8 -251 -86 -224 -184 54 -331 211 -368 392 -60 293 124 576 414 637 39 8
90 15 115 15 l45 0 3 51 c7 116 74 253 163 334 157 142 356 195 548 146 151
-38 264 -117 350 -247 53 -78 77 -143 88 -231 6 -51 7 -53 42 -58 166 -26 283
-110 354 -255 98 -199 62 -452 -85 -599 -79 -80 -121 -105 -377 -227 -693
-329 -776 -371 -788 -395 -12 -23 -19 -219 -8 -219 12 0 1088 526 1145 559
173 103 303 277 351 471 20 81 18 289 -4 370 -29 107 -83 204 -159 285 -69 74
-178 151 -250 176 -30 10 -40 21 -54 58 -97 260 -298 449 -542 512 -104 26
-248 32 -345 14z"/>
<path d="M1580 1270 l0 -580 120 60 120 60 0 520 0 520 -120 0 -120 0 0 -580z"/>
<path d="M1150 995 c0 -278 3 -505 8 -505 4 0 58 26 120 58 l113 57 2 448 2
447 -122 0 -123 0 0 -505z"/>
</g>
</svg>
