<?xml version="1.0" standalone="no"?>
<!DOCTYPE svg PUBLIC "-//W3C//DTD SVG 20010904//EN"
 "http://www.w3.org/TR/2001/REC-SVG-20010904/DTD/svg10.dtd">
<svg version="1.0" xmlns="http://www.w3.org/2000/svg"
 width="949.000000pt" height="256.000000pt" viewBox="0 0 949.000000 256.000000"
 preserveAspectRatio="xMidYMid meet">

<g transform="translate(0.000000,256.000000) scale(0.100000,-0.100000)"
fill="#000000" stroke="none">
<path d="M2277 2535 c-254 -48 -480 -235 -583 -482 -15 -37 -29 -69 -29 -71
-1 -1 -35 -12 -76 -23 -254 -70 -442 -269 -510 -538 -29 -116 -23 -280 14
-394 104 -319 410 -525 768 -515 l104 3 3 348 2 347 -123 0 -123 0 1 -240 c0
-271 8 -251 -86 -224 -184 54 -331 211 -368 392 -60 293 124 576 414 637 39 8
90 15 115 15 l45 0 3 51 c7 116 74 253 163 334 157 142 356 195 548 146 151
-38 264 -117 350 -247 53 -78 77 -143 88 -231 6 -51 7 -53 42 -58 166 -26 283
-110 354 -255 98 -199 62 -452 -85 -599 -79 -80 -121 -105 -377 -227 -693
-329 -776 -371 -788 -395 -12 -23 -19 -219 -8 -219 12 0 1088 526 1145 559
173 103 303 277 351 471 20 81 18 289 -4 370 -29 107 -83 204 -159 285 -69 74
-178 151 -250 176 -30 10 -40 21 -54 58 -97 260 -298 449 -542 512 -104 26
-248 32 -345 14z"/>
<path d="M6100 2401 c-60 -19 -129 -62 -167 -104 -161 -175 -147 -480 29 -628
71 -60 129 -82 230 -87 108 -5 177 14 259 75 53 38 139 146 127 158 -2 3 -38
11 -78 19 l-74 14 -45 -47 c-108 -110 -273 -91 -355 42 -24 39 -30 62 -34 126
-10 173 82 291 226 291 67 0 116 -21 167 -70 l40 -38 67 11 c36 7 69 15 73 19
24 24 -97 153 -182 194 -50 25 -71 29 -158 31 -55 1 -111 -1 -125 -6z"/>
<path d="M4110 1995 l0 -405 258 0 c142 0 261 2 263 4 2 2 2 37 1 76 l-4 72
-179 -7 -180 -8 3 98 3 97 153 -1 152 -2 0 71 0 70 -155 0 -155 0 0 100 0 100
180 0 180 0 0 70 0 70 -260 0 -260 0 0 -405z"/>
<path d="M4790 1995 l0 -405 80 0 80 0 0 150 0 151 57 -3 57 -3 75 -147 76
-148 89 0 c67 0 87 3 83 13 -3 6 -41 80 -85 162 l-80 150 34 17 c47 25 101 84
116 127 7 20 12 63 12 96 -1 73 -26 126 -83 178 -62 56 -115 67 -328 67 l-183
0 0 -405z m347 254 c42 -16 72 -48 79 -86 16 -86 -49 -133 -184 -133 l-82 0 0
115 0 115 79 0 c44 0 92 -5 108 -11z"/>
<path d="M5530 1995 l0 -405 80 0 80 0 0 405 0 405 -80 0 -80 0 0 -405z"/>
<path d="M6710 1995 l0 -405 80 0 80 0 0 135 c0 124 2 138 22 165 12 17 27 30
32 30 6 0 64 -75 129 -165 l118 -165 101 0 c55 0 98 4 96 8 -1 5 -74 106 -162
224 -87 119 -158 219 -158 223 0 3 71 85 157 181 l156 174 -103 0 -103 -1
-139 -164 c-77 -91 -142 -165 -145 -165 -4 0 -5 74 -3 165 l3 165 -81 0 -80 0
0 -405z"/>
<path d="M2570 1310 l0 -580 120 60 120 60 0 520 0 520 -120 0 -120 0 0 -580z"/>
<path d="M2140 1035 c0 -278 3 -505 8 -505 4 0 58 26 120 58 l113 57 2 448 2
447 -122 0 -123 0 0 -505z"/>
<path d="M8023 1352 c-137 -49 -227 -184 -226 -342 1 -177 97 -314 250 -356
153 -42 312 20 389 152 34 58 57 174 49 246 -14 119 -97 238 -200 287 -69 33
-189 39 -262 13z m227 -156 c121 -80 119 -303 -3 -384 -34 -22 -52 -27 -107
-27 -57 0 -73 4 -108 29 -140 97 -117 340 39 406 44 18 133 7 179 -24z"/>
<path d="M4100 1009 l0 -349 65 0 65 0 0 225 c0 124 3 225 8 225 4 0 17 -18
30 -40 13 -23 79 -126 147 -230 l124 -190 61 0 60 0 0 350 0 350 -65 0 -65 0
-1 -227 c0 -180 -3 -224 -12 -210 -81 124 -281 424 -287 431 -5 5 -36 10 -69
11 l-61 2 0 -348z"/>
<path d="M4986 1352 c-12 -19 -256 -677 -256 -689 0 -11 16 -13 68 -11 l67 3
25 73 25 72 135 0 135 0 25 -72 25 -73 78 -3 c47 -2 78 1 75 7 -1 5 -61 165
-133 355 l-129 346 -68 0 c-37 0 -69 -4 -72 -8z m111 -297 c22 -63 37 -117 35
-120 -8 -8 -162 -6 -162 3 0 16 75 232 81 232 4 0 24 -52 46 -115z"/>
<path d="M6119 1333 c-6 -16 -47 -124 -90 -242 -44 -117 -98 -258 -120 -314
-21 -55 -39 -106 -39 -113 0 -16 127 -17 137 -1 3 5 16 37 28 71 l22 61 135 3
134 3 26 -73 25 -73 72 -3 c40 -2 71 1 71 7 0 5 -52 152 -116 327 -64 176
-121 331 -126 347 -10 26 -13 27 -79 27 -67 0 -70 -1 -80 -27z m116 -270 c18
-54 36 -106 40 -115 6 -16 -1 -18 -79 -18 -47 0 -86 2 -86 5 0 5 52 160 75
224 8 22 15 8 50 -96z"/>
<path d="M6610 1355 c0 -3 0 -161 0 -352 l-1 -348 63 0 63 0 3 133 3 132 43 0
44 0 67 -127 c37 -71 70 -132 74 -136 5 -4 40 -7 79 -5 l72 3 -75 137 c-41 76
-75 140 -75 142 0 2 21 16 46 31 62 36 99 113 91 187 -13 109 -85 182 -197
198 -68 10 -300 14 -300 5z m284 -139 c69 -29 86 -94 37 -148 -28 -31 -33 -33
-110 -36 l-81 -4 0 101 0 101 60 0 c33 0 76 -6 94 -14z"/>
<path d="M7230 1006 l0 -356 65 0 65 0 0 135 0 135 48 0 48 0 68 -131 c38 -72
74 -133 81 -135 6 -3 42 -4 78 -2 l67 3 -78 141 -78 141 35 19 c19 10 48 36
65 57 29 36 31 44 31 121 0 75 -3 87 -29 124 -19 28 -47 51 -84 69 -51 25 -66
27 -218 31 l-164 5 0 -357z m317 198 c55 -42 55 -107 0 -148 -22 -16 -47 -22
-108 -25 l-79 -3 0 94 c0 52 3 98 8 102 4 4 39 6 79 4 53 -2 79 -9 100 -24z"/>
<path d="M5320 1343 c0 -4 50 -146 111 -316 61 -171 116 -323 121 -339 10 -27
13 -28 73 -28 60 0 64 1 73 28 5 15 62 168 126 340 64 172 116 315 116 317 0
3 -30 5 -68 5 l-67 0 -84 -237 c-46 -131 -87 -242 -91 -246 -5 -5 -15 13 -23
40 -8 26 -45 137 -82 246 l-68 197 -68 0 c-38 0 -69 -3 -69 -7z"/>
<path d="M4100 180 l0 -160 73 0 c132 1 197 53 197 161 0 107 -64 158 -197
159 l-73 0 0 -160z m154 96 c45 -19 66 -52 66 -104 0 -35 -6 -49 -29 -73 -26
-25 -37 -29 -85 -29 l-56 0 0 110 0 110 35 0 c20 0 51 -6 69 -14z"/>
<path d="M4541 313 c-26 -66 -101 -277 -101 -285 0 -4 11 -8 25 -8 19 0 28 8
39 35 15 35 16 35 76 35 60 0 61 0 76 -35 12 -29 19 -35 45 -35 26 0 30 3 24
18 -4 9 -29 81 -57 160 l-50 142 -33 0 c-26 0 -35 -5 -44 -27z m63 -95 c9 -29
20 -59 23 -65 3 -9 -9 -13 -44 -13 l-49 0 20 65 c12 35 24 65 27 65 3 0 13
-24 23 -52z"/>
<path d="M4770 316 c0 -22 5 -25 43 -28 l42 -3 0 -133 0 -132 28 0 27 0 0 135
0 135 43 0 c38 0 42 2 42 25 l0 25 -112 0 -113 0 0 -24z"/>
<path d="M5135 328 c-2 -7 -27 -77 -55 -154 -27 -78 -50 -144 -50 -148 0 -3
14 -6 30 -6 23 0 30 5 30 19 0 37 26 51 88 47 53 -4 58 -7 70 -35 10 -25 18
-31 43 -31 17 0 29 4 27 8 -1 5 -27 77 -57 160 l-55 152 -33 0 c-19 0 -36 -6
-38 -12z m85 -185 c0 -2 -22 -3 -49 -3 l-49 0 19 53 c11 28 22 59 25 67 4 9
16 -11 30 -50 13 -36 24 -66 24 -67z"/>
<path d="M5580 180 l0 -160 100 0 c100 0 100 0 100 25 0 23 -3 24 -76 27 l-77
3 -1 38 -1 37 68 0 c64 0 67 1 67 25 0 23 -3 24 -67 27 l-66 3 0 40 0 40 76 3
c74 3 77 4 77 27 0 25 0 25 -100 25 l-100 0 0 -160z"/>
<path d="M5880 180 l0 -160 25 0 25 0 0 110 c0 101 9 134 24 94 3 -8 33 -58
67 -110 49 -76 66 -94 85 -94 l24 0 0 160 0 160 -25 0 -25 0 0 -112 c-1 -92
-3 -110 -13 -96 -7 10 -39 60 -72 113 -52 83 -63 95 -87 95 l-28 0 0 -160z"/>
<path d="M6324 330 c-33 -13 -81 -75 -88 -114 -13 -69 25 -150 84 -181 16 -8
54 -15 85 -15 49 0 60 4 91 33 25 23 40 48 49 82 7 28 11 53 8 58 -2 4 -38 7
-79 7 -72 0 -74 -1 -74 -25 0 -23 3 -25 50 -25 56 0 60 -7 28 -45 -44 -49
-138 -43 -174 13 -28 43 -22 99 15 135 27 27 39 32 80 32 38 0 55 -5 74 -23
21 -20 28 -22 47 -12 19 10 20 14 8 32 -32 49 -140 74 -204 48z"/>
<path d="M6654 180 l1 -160 28 0 27 0 0 160 0 160 -28 0 -29 0 1 -160z"/>
<path d="M6830 180 l0 -160 25 0 25 0 0 105 c0 58 3 105 8 105 4 -1 36 -48 72
-105 57 -93 68 -105 92 -105 l28 0 0 160 0 160 -25 0 c-24 0 -24 0 -27 -112
l-3 -112 -74 112 c-59 90 -78 112 -97 112 l-24 0 0 -160z"/>
<path d="M7200 180 l0 -160 105 0 105 0 0 25 c0 24 -2 25 -74 25 l-74 0 -4 40
-4 40 68 0 c66 0 68 1 68 25 0 24 -2 25 -63 25 -35 0 -66 2 -68 4 -3 3 -3 23
-1 45 l4 41 74 0 c72 0 74 1 74 25 l0 25 -105 0 -105 0 0 -160z"/>
<path d="M7510 180 l0 -160 103 0 102 0 0 25 c0 25 -1 25 -77 25 l-78 0 0 40
0 40 65 0 c62 0 65 1 65 25 0 23 -4 24 -62 27 l-63 3 -3 43 -3 42 75 0 c74 0
76 1 76 25 l0 25 -100 0 -100 0 0 -160z"/>
<path d="M7818 181 l3 -161 24 0 c24 0 25 3 25 61 0 60 0 60 28 57 22 -2 33
-14 57 -60 27 -52 33 -58 63 -58 17 0 32 3 32 8 0 4 -16 33 -34 66 l-34 58 30
27 c40 36 42 92 4 129 -22 23 -35 26 -113 30 l-88 4 3 -161z m142 96 c57 -29
15 -90 -59 -85 -33 3 -34 4 -33 46 0 23 1 44 1 47 2 10 67 4 91 -8z"/>
</g>
</svg>
