<?xml version="1.0" standalone="no"?>
<!DOCTYPE svg PUBLIC "-//W3C//DTD SVG 20010904//EN"
 "http://www.w3.org/TR/2001/REC-SVG-20010904/DTD/svg10.dtd">
<svg version="1.0" xmlns="http://www.w3.org/2000/svg"
 width="949.000000pt" height="256.000000pt" viewBox="0 0 949.000000 256.000000"
 preserveAspectRatio="xMidYMid meet">

<g transform="translate(0.000000,256.000000) scale(0.100000,-0.100000)"
fill="#000000" stroke="none">
<path d="M2277 2535 c-254 -48 -480 -235 -583 -482 -15 -37 -29 -69 -29 -71
-1 -1 -35 -12 -76 -23 -254 -70 -442 -269 -510 -538 -29 -116 -23 -280 14
-394 104 -319 410 -525 768 -515 l104 3 3 348 2 347 -123 0 -123 0 1 -240 c0
-271 8 -251 -86 -224 -184 54 -331 211 -368 392 -60 293 124 576 414 637 39 8
90 15 115 15 l45 0 3 51 c7 116 74 253 163 334 157 142 356 195 548 146 151
-38 264 -117 350 -247 53 -78 77 -143 88 -231 6 -51 7 -53 42 -58 166 -26 283
-110 354 -255 98 -199 62 -452 -85 -599 -79 -80 -121 -105 -377 -227 -693
-329 -776 -371 -788 -395 -12 -23 -19 -219 -8 -219 12 0 1088 526 1145 559
173 103 303 277 351 471 20 81 18 289 -4 370 -29 107 -83 204 -159 285 -69 74
-178 151 -250 176 -30 10 -40 21 -54 58 -97 260 -298 449 -542 512 -104 26
-248 32 -345 14z"/>
<path d="M6166 2159 c-21 -5 -65 -23 -97 -41 -235 -125 -286 -476 -95 -657 87
-81 169 -111 306 -111 107 0 251 39 244 65 -1 6 -5 39 -9 76 l-6 65 -59 -29
c-143 -71 -315 -32 -386 88 -60 104 -38 266 48 339 85 74 229 88 336 33 30
-15 54 -27 55 -27 1 0 1 37 0 82 -1 54 -6 84 -15 89 -50 32 -237 48 -322 28z
m141 -115 c-3 -3 -12 -4 -19 -1 -8 3 -5 6 6 6 11 1 17 -2 13 -5z m-147 -39
c-14 -8 -29 -14 -35 -14 -5 0 1 6 15 14 14 8 30 14 35 14 6 0 -1 -6 -15 -14z
m330 -15 c0 -5 -2 -10 -4 -10 -3 0 -8 5 -11 10 -3 6 -1 10 4 10 6 0 11 -4 11
-10z m-380 -14 c0 -2 -8 -10 -17 -17 -16 -13 -17 -12 -4 4 13 16 21 21 21 13z
m-45 -564 c-3 -3 -11 0 -18 7 -9 10 -8 11 6 5 10 -3 15 -9 12 -12z m435 -2
c-8 -5 -19 -10 -25 -10 -5 0 -3 5 5 10 8 5 20 10 25 10 6 0 3 -5 -5 -10z
m-107 -37 c-7 -2 -19 -2 -25 0 -7 3 -2 5 12 5 14 0 19 -2 13 -5z m-85 -10
c-16 -2 -40 -2 -55 0 -16 2 -3 4 27 4 30 0 43 -2 28 -4z"/>
<path d="M4140 1765 l0 -395 253 0 252 0 -1 67 -2 68 -166 3 -166 2 0 95 0 95
155 0 155 0 0 70 0 70 -155 0 -155 0 0 90 0 90 168 0 167 0 -3 70 -4 70 -249
0 -249 0 0 -395z m288 268 c-21 -2 -57 -2 -80 0 -24 2 -7 4 37 4 44 0 63 -2
43 -4z m202 -643 c0 -6 -28 -9 -67 -8 l-68 1 65 7 c36 4 66 7 68 8 1 1 2 -2 2
-8z m-317 -7 c-29 -2 -78 -2 -110 0 -32 2 -8 3 52 3 61 0 87 -1 58 -3z m150 0
c-18 -2 -48 -2 -65 0 -18 2 -4 4 32 4 36 0 50 -2 33 -4z"/>
<path d="M4800 1766 l0 -396 85 0 85 0 0 139 0 139 40 4 39 3 93 -142 93 -143
104 0 103 0 -24 33 c-14 17 -66 89 -116 159 -78 109 -89 128 -73 133 48 15
104 68 128 122 22 47 25 65 21 125 -7 93 -40 141 -123 183 -60 30 -61 30 -257
34 l-198 3 0 -396z m288 277 c-21 -2 -57 -2 -80 0 -24 2 -7 4 37 4 44 0 63 -2
43 -4z m31 -24 c66 -14 91 -44 91 -109 0 -85 -42 -116 -167 -123 l-73 -4 0
123 0 124 50 0 c27 0 72 -5 99 -11z m82 -16 c13 -16 12 -17 -3 -4 -17 13 -22
21 -14 21 2 0 10 -8 17 -17z m109 -239 c-8 -8 -23 -20 -34 -25 -13 -7 -9 -1 9
15 34 29 43 33 25 10z m-282 -91 c-10 -2 -28 -2 -40 0 -13 2 -5 4 17 4 22 1
32 -1 23 -4z m292 -286 l65 -3 -71 -2 c-59 -2 -73 1 -78 14 -5 13 -3 14 7 6 7
-6 42 -13 77 -15z m-370 3 c0 -6 -26 -9 -62 -8 l-63 1 60 7 c33 4 61 7 63 8 1
1 2 -2 2 -8z"/>
<path d="M5550 1765 l0 -395 85 0 85 0 0 395 0 395 -85 0 -85 0 0 -395z m128
-382 c-21 -2 -55 -2 -75 0 -21 2 -4 4 37 4 41 0 58 -2 38 -4z"/>
<path d="M6670 1765 l0 -395 85 0 85 0 0 191 0 192 26 -39 c15 -21 76 -108
136 -191 l109 -153 104 0 105 0 -121 163 c-66 89 -135 182 -154 207 l-33 45
85 105 c47 58 116 142 154 188 l69 82 -103 0 -104 0 -138 -180 c-76 -99 -139
-180 -139 -180 -1 0 0 81 2 180 l3 180 -86 0 -85 0 0 -395z m610 371 c0 -2 -8
-10 -17 -17 -16 -13 -17 -12 -4 4 13 16 21 21 21 13z m-40 -50 c0 -2 -8 -10
-17 -17 -16 -13 -17 -12 -4 4 13 16 21 21 21 13z m-130 -160 c0 -2 -8 -10 -17
-17 -16 -13 -17 -12 -4 4 13 16 21 21 21 13z m-50 -60 c0 -2 -8 -10 -17 -17
-16 -13 -17 -12 -4 4 13 16 21 21 21 13z m-39 -333 c13 -16 12 -17 -3 -4 -10
7 -18 15 -18 17 0 8 8 3 21 -13z m174 -146 l70 -3 -71 -2 c-58 -2 -74 1 -85
16 -12 15 -12 16 1 5 9 -7 47 -14 85 -16z m-407 -4 c-21 -2 -55 -2 -75 0 -21
2 -4 4 37 4 41 0 58 -2 38 -4z"/>
<path d="M2570 1310 l0 -580 120 60 120 60 0 520 0 520 -120 0 -120 0 0 -580z"/>
<path d="M2140 1035 c0 -278 3 -505 8 -505 4 0 58 26 120 58 l113 57 2 448 2
447 -122 0 -123 0 0 -505z"/>
<path d="M5783 1112 c-46 -2 -63 -7 -68 -20 -34 -86 -135 -375 -140 -405 -8
-42 -20 -41 -30 2 -7 34 -130 374 -145 402 -9 16 -22 19 -75 19 l-64 0 18 -42
c9 -24 41 -110 69 -193 29 -82 72 -202 96 -265 l43 -115 73 0 73 0 109 309
c60 170 107 309 106 310 -2 1 -31 0 -65 -2z m-262 -600 c-7 -2 -18 1 -23 6 -8
8 -4 9 13 5 13 -4 18 -8 10 -11z m76 2 c-3 -3 -12 -4 -19 -1 -8 3 -5 6 6 6 11
1 17 -2 13 -5z"/>
<path d="M7780 1102 c-73 -27 -116 -59 -149 -109 -40 -60 -55 -112 -55 -193 0
-128 61 -232 166 -284 45 -23 65 -26 148 -26 83 0 103 3 147 26 127 63 193
205 163 351 -21 101 -78 176 -173 225 -57 29 -183 35 -247 10z m49 -86 c-2 -2
-15 -9 -29 -15 -24 -11 -24 -11 -6 3 16 13 49 24 35 12z m136 -25 c51 -23 92
-71 101 -117 3 -19 4 -63 2 -99 -3 -53 -9 -71 -34 -102 -73 -91 -199 -99 -276
-17 -37 40 -48 74 -48 149 0 101 28 150 105 186 51 24 99 24 150 0z m66 -17
c9 -11 2 -9 -18 6 -18 13 -33 25 -33 27 0 8 38 -17 51 -33z m-261 13 c0 -2
-10 -12 -22 -23 l-23 -19 19 23 c18 21 26 27 26 19z m-90 -402 c13 -14 21 -25
18 -25 -2 0 -15 11 -28 25 -13 14 -21 25 -18 25 2 0 15 -11 28 -25z m440 12
c0 -2 -12 -14 -27 -28 l-28 -24 24 28 c23 25 31 32 31 24z m-351 -73 c14 -12
-19 -1 -35 12 -18 14 -18 14 6 3 14 -6 27 -13 29 -15z m277 11 c-11 -8 -25
-15 -30 -15 -6 1 0 7 14 15 32 19 40 18 16 0z m-129 -32 c-20 -2 -52 -2 -70 0
-17 2 0 4 38 4 39 0 53 -2 32 -4z"/>
<path d="M4140 800 l0 -310 65 0 66 0 -3 209 c-2 115 0 207 3 205 4 -2 64 -96
135 -209 l129 -205 63 0 62 0 0 310 0 310 -65 0 -66 0 3 -195 c2 -107 1 -195
-2 -195 -3 0 -17 21 -33 48 -15 26 -70 113 -123 195 l-96 147 -69 0 -69 0 0
-310z m507 -286 c-3 -3 -12 -4 -19 -1 -8 3 -5 6 6 6 11 1 17 -2 13 -5z"/>
<path d="M4905 983 c-26 -71 -73 -202 -105 -293 -32 -91 -61 -173 -65 -182 -6
-16 0 -18 63 -18 l70 0 22 65 22 65 114 0 c66 0 114 -4 114 -10 0 -5 9 -34 21
-65 l20 -55 68 0 68 0 -53 153 c-30 83 -80 223 -112 309 l-57 158 -71 0 -72 0
-47 -127z m190 -235 c6 -16 0 -18 -69 -18 -42 0 -76 3 -76 7 0 5 16 57 36 117
l36 108 33 -98 c18 -55 36 -107 40 -116z m128 -235 c-7 -2 -19 -2 -25 0 -7 3
-2 5 12 5 14 0 19 -2 13 -5z"/>
<path d="M5912 807 c-62 -166 -112 -306 -112 -310 0 -4 31 -7 69 -7 l70 0 20
55 c12 31 21 60 21 66 0 6 44 9 117 7 l117 -3 20 -62 20 -63 71 0 72 0 -57
163 c-32 89 -82 228 -111 309 l-54 148 -75 0 -76 0 -112 -303z m229 41 l38
-113 -76 -3 c-41 -2 -77 -1 -79 0 -4 5 70 237 75 232 2 -2 21 -54 42 -116z
m-278 -335 c-7 -2 -21 -2 -30 0 -10 3 -4 5 12 5 17 0 24 -2 18 -5z m60 0 c-7
-2 -21 -2 -30 0 -10 3 -4 5 12 5 17 0 24 -2 18 -5z m394 1 c-3 -3 -12 -4 -19
-1 -8 3 -5 6 6 6 11 1 17 -2 13 -5z"/>
<path d="M6470 800 l0 -310 65 0 65 0 0 115 0 115 34 0 c33 0 38 -5 106 -115
l72 -115 74 0 74 0 -38 58 c-20 31 -56 85 -80 119 -47 69 -48 73 -27 73 28 0
92 73 105 120 26 98 -9 183 -92 224 -49 25 -61 26 -205 26 l-153 0 0 -310z
m293 190 c34 -27 44 -78 23 -118 -22 -43 -44 -52 -120 -52 l-66 0 0 95 0 95
69 0 c54 0 74 -4 94 -20z m117 -183 c0 -2 -10 -12 -22 -23 l-23 -19 19 23 c18
21 26 27 26 19z m-60 -282 c7 -9 8 -15 2 -15 -5 0 -12 7 -16 15 -3 8 -4 15 -2
15 2 0 9 -7 16 -15z m53 -12 c-7 -2 -19 -2 -25 0 -7 3 -2 5 12 5 14 0 19 -2
13 -5z m50 0 c-7 -2 -19 -2 -25 0 -7 3 -2 5 12 5 14 0 19 -2 13 -5z"/>
<path d="M7040 800 l0 -310 65 0 65 0 0 118 0 117 36 0 c35 0 37 -2 106 -117
l71 -118 73 0 74 0 -67 108 c-36 59 -72 117 -80 128 -12 20 -11 22 16 33 83
35 123 148 86 238 -40 95 -84 112 -287 113 l-158 0 0 -310z m285 220 c3 -6 -1
-7 -9 -4 -18 7 -21 14 -7 14 6 0 13 -4 16 -10z m16 -39 c31 -31 35 -53 19 -95
-13 -36 -59 -56 -130 -56 l-60 0 0 90 0 90 71 0 c65 0 73 -2 100 -29z m20 12
c13 -16 12 -17 -3 -4 -17 13 -22 21 -14 21 2 0 10 -8 17 -17z m89 -177 c0 -2
-8 -10 -17 -17 -16 -13 -17 -12 -4 4 13 16 21 21 21 13z m-217 -73 c-7 -2 -19
-2 -25 0 -7 3 -2 5 12 5 14 0 19 -2 13 -5z m176 -230 c2 -2 -3 -3 -11 -3 -9 0
-19 7 -22 16 -6 15 -4 15 11 3 10 -7 20 -15 22 -16z"/>
</g>
</svg>
