<?xml version="1.0" standalone="no"?>
<!DOCTYPE svg PUBLIC "-//W3C//DTD SVG 20010904//EN"
 "http://www.w3.org/TR/2001/REC-SVG-20010904/DTD/svg10.dtd">
<svg version="1.0" xmlns="http://www.w3.org/2000/svg"
 width="1024.000000pt" height="1024.000000pt" viewBox="0 0 1024.000000 1024.000000"
 preserveAspectRatio="xMidYMid meet">

<g transform="translate(0.000000,1024.000000) scale(0.100000,-0.100000)"
fill="#000000" stroke="none">
<path d="M2835 6355 c-126 -27 -299 -117 -300 -156 0 -3 -29 -37 -65 -75 -35
-38 -58 -60 -50 -49 7 11 36 44 64 73 28 28 45 52 39 52 -20 0 -132 -133 -165
-196 l-32 -61 -83 -7 c-170 -13 -322 -83 -444 -205 -131 -131 -197 -282 -206
-471 -18 -352 185 -634 532 -742 66 -21 93 -22 473 -26 l402 -3 0 473 0 474
-125 0 -125 -1 0 -387 0 -388 -90 0 -90 0 0 235 0 235 -115 0 -115 0 0 -234 0
-234 -47 5 c-149 14 -268 68 -363 163 -110 110 -160 232 -160 390 0 162 46
277 154 386 112 113 217 154 391 154 53 0 105 4 115 10 10 5 24 27 31 47 15
49 57 133 77 156 8 9 13 20 10 23 -10 9 -50 -55 -84 -135 l-33 -76 -91 -1 -90
0 90 3 c70 3 90 7 90 18 0 20 91 195 101 195 5 0 11 0 14 0 3 -1 31 21 61 49
147 131 335 178 526 132 172 -41 297 -141 376 -300 l47 -96 86 -12 c207 -29
353 -130 433 -298 43 -89 57 -153 58 -254 1 -162 -53 -292 -165 -405 -40 -39
-91 -82 -114 -94 l-43 -23 0 369 0 370 -130 0 -130 0 0 -474 0 -474 66 0 c278
0 545 194 644 467 97 268 38 565 -152 768 -39 41 -75 75 -81 75 -6 0 5 -17 24
-37 l34 -38 -37 34 c-21 19 -35 38 -32 42 13 22 -172 113 -269 131 -45 8 -69
18 -72 28 -10 31 -65 111 -74 106 -4 -3 -23 11 -42 32 l-34 37 38 -34 c20 -19
37 -30 37 -24 0 15 -132 138 -183 170 -136 86 -266 123 -422 122 -55 0 -127
-7 -160 -14z m193 -2 c-15 -2 -42 -2 -60 0 -18 2 -6 4 27 4 33 0 48 -2 33 -4z
m-130 -10 c-10 -2 -26 -2 -35 0 -10 3 -2 5 17 5 19 0 27 -2 18 -5z m235 0 c-7
-2 -21 -2 -30 0 -10 3 -4 5 12 5 17 0 24 -2 18 -5z m-296 -9 c-3 -3 -12 -4
-19 -1 -8 3 -5 6 6 6 11 1 17 -2 13 -5z m346 -1 c-7 -2 -19 -2 -25 0 -7 3 -2
5 12 5 14 0 19 -2 13 -5z m-383 -8 c0 -6 -73 -25 -78 -20 -2 2 11 8 29 14 41
11 49 12 49 6z m501 -31 c33 -15 58 -29 56 -31 -2 -2 -33 10 -68 26 -35 17
-60 30 -55 31 5 0 35 -12 67 -26z m-611 -8 c0 -2 -7 -7 -16 -10 -8 -3 -12 -2
-9 4 6 10 25 14 25 6z m-60 -30 c0 -2 -18 -15 -40 -30 -22 -14 -40 -24 -40
-22 0 5 71 56 77 56 2 0 3 -2 3 -4z m818 -50 c10 -12 0 -8 -23 9 -56 40 -66
51 -27 29 18 -10 41 -28 50 -38z m-291 -6 c117 -32 214 -93 291 -183 61 -71
51 -67 -17 5 -118 126 -278 193 -446 186 -47 -2 -85 0 -85 5 0 16 186 7 257
-13z m-334 -15 c-39 -13 -88 -34 -110 -46 -51 -28 -143 -99 -143 -110 0 -5 -6
-9 -12 -9 -19 1 72 81 134 118 59 35 151 71 183 71 11 0 -12 -10 -52 -24z
m691 -32 c8 -19 2 -16 -25 13 -23 25 -23 26 -2 13 13 -7 25 -19 27 -26z
m-1136 -158 c-16 -30 -32 -55 -34 -55 -5 0 34 80 48 98 20 24 16 11 -14 -43z
m1247 29 c9 -15 12 -23 6 -20 -11 7 -35 46 -28 46 3 0 12 -12 22 -26z m44 -89
c0 -5 -6 1 -14 15 -8 14 -14 30 -14 35 0 6 6 -1 14 -15 8 -14 14 -29 14 -35z
m-147 -27 c9 -18 24 -50 32 -70 15 -37 17 -38 68 -40 46 -1 48 -2 14 -5 -48
-5 -86 3 -86 20 0 6 -13 40 -30 75 -30 64 -29 81 2 20z m185 16 c-3 -3 -12 -4
-19 -1 -8 3 -5 6 6 6 11 1 17 -2 13 -5z m-1464 -11 c-13 -2 -33 -2 -45 0 -13
2 -3 4 22 4 25 0 35 -2 23 -4z m1542 -3 c14 -7 8 -8 -20 -3 -22 3 -42 7 -44 9
-9 8 45 2 64 -6z m-1635 -10 c-34 -11 -60 -11 -35 0 11 5 29 8 40 8 16 0 15
-2 -5 -8z m-75 -20 c-27 -12 -43 -12 -25 0 8 5 22 9 30 9 10 0 8 -3 -5 -9z
m-104 -45 c-35 -19 -73 -42 -85 -52 l-21 -17 20 21 c21 23 122 83 140 83 6 0
-19 -16 -54 -35z m1944 25 c3 -6 -1 -7 -9 -4 -18 7 -21 14 -7 14 6 0 13 -4 16
-10z m55 -36 c0 -2 -9 0 -20 6 -11 6 -20 13 -20 16 0 2 9 0 20 -6 11 -6 20
-13 20 -16z m-1730 -42 c0 -4 -26 -12 -59 -19 -136 -26 -290 -138 -356 -261
-15 -28 -30 -50 -33 -47 -11 10 67 120 123 174 75 72 138 109 234 138 87 25
91 26 91 15z m1540 -18 c28 -17 15 -14 -61 11 l-44 15 40 -6 c22 -3 51 -12 65
-20z m-1920 3 c0 -1 -26 -27 -57 -57 l-58 -55 55 58 c50 53 60 62 60 54z
m2029 -56 c36 -22 82 -56 101 -77 l35 -38 -46 40 c-26 21 -75 56 -110 77 -35
20 -59 37 -54 37 5 0 38 -18 74 -39z m300 -115 c12 -22 16 -32 9 -22 -7 11
-34 49 -61 85 -43 60 -44 62 -8 22 21 -24 48 -62 60 -85z m-2455 29 c-9 -14
-18 -25 -21 -25 -5 0 5 18 20 38 17 22 18 13 1 -13z m-41 -70 c-9 -19 -18 -33
-21 -31 -4 5 26 66 33 66 3 0 -3 -16 -12 -35z m2374 -19 c19 -38 12 -32 -23
19 -14 22 -19 33 -10 25 10 -7 24 -27 33 -44z m173 -41 c0 -5 -5 -3 -10 5 -5
8 -10 20 -10 25 0 6 5 3 10 -5 5 -8 10 -19 10 -25z m-2589 -32 c-12 -20 -14
-14 -5 12 4 9 9 14 11 11 3 -2 0 -13 -6 -23z m2608 -28 c0 -5 -4 -3 -9 5 -5 8
-9 22 -9 30 0 16 17 -16 18 -35z m-139 -10 c0 -5 -5 -3 -10 5 -5 8 -10 20 -10
25 0 6 5 3 10 -5 5 -8 10 -19 10 -25z m-1242 -12 l-108 -4 -3 -377 -2 -377 -3
383 -2 382 113 -2 112 -2 -107 -3z m920 -30 c-1 -37 -1 -37 -5 -6 l-4 32 -117
4 -117 3 123 2 122 2 -2 -37z m-2171 -5 c-3 -8 -6 -5 -6 6 -1 11 2 17 5 13 3
-3 4 -12 1 -19z m2510 -20 c-3 -8 -6 -5 -6 6 -1 11 2 17 5 13 3 -3 4 -12 1
-19z m140 -15 c-3 -10 -5 -4 -5 12 0 17 2 24 5 18 2 -7 2 -21 0 -30z m-2660
-40 c-3 -10 -5 -2 -5 17 0 19 2 27 5 18 2 -10 2 -26 0 -35z m1360 25 c-3 -8
-6 -5 -6 6 -1 11 2 17 5 13 3 -3 4 -12 1 -19z m-1220 -20 c-3 -7 -5 -2 -5 12
0 14 2 19 5 13 2 -7 2 -19 0 -25z m2040 -15 c-3 -10 -5 -2 -5 17 0 19 2 27 5
18 2 -10 2 -26 0 -35z m357 22 c-4 -8 -8 -15 -10 -15 -2 0 -4 7 -4 15 0 8 4
15 10 15 5 0 7 -7 4 -15z m-587 -27 c-3 -7 -5 -2 -5 12 0 14 2 19 5 13 2 -7 2
-19 0 -25z m720 -120 c-2 -29 -3 -6 -3 52 0 58 1 81 3 53 2 -29 2 -77 0 -105z
m-2540 30 c-2 -18 -4 -4 -4 32 0 36 2 50 4 33 2 -18 2 -48 0 -65z m-140 5 c-2
-16 -4 -3 -4 27 0 30 2 43 4 28 2 -16 2 -40 0 -55z m2550 -5 c-2 -18 -4 -6 -4
27 0 33 2 48 4 33 2 -15 2 -42 0 -60z m-360 -80 c-2 -29 -3 -6 -3 52 0 58 1
81 3 53 2 -29 2 -77 0 -105z m-230 80 c-3 -8 -6 -5 -6 6 -1 11 2 17 5 13 3 -3
4 -12 1 -19z m-1950 -95 c-2 -16 -4 -5 -4 22 0 28 2 40 4 28 2 -13 2 -35 0
-50z m162 -68 c-2 -17 -27 69 -27 90 0 11 6 -2 14 -30 7 -27 13 -54 13 -60z
m1788 58 c-3 -10 -5 -2 -5 17 0 19 2 27 5 18 2 -10 2 -26 0 -35z m580 15 c-3
-7 -5 -2 -5 12 0 14 2 19 5 13 2 -7 2 -19 0 -25z m-1589 -135 l-2 -138 -3 133
-4 132 -94 0 -95 0 -3 -167 -3 -168 -2 173 -2 172 105 0 105 0 -2 -137z m1719
95 c-3 -7 -5 -2 -5 12 0 14 2 19 5 13 2 -7 2 -19 0 -25z m-140 0 c-3 -8 -6 -5
-6 6 -1 11 2 17 5 13 3 -3 4 -12 1 -19z m-2499 -58 c0 -9 -3 -7 -8 5 -5 11 -8
29 -8 40 0 16 2 15 8 -5 4 -14 8 -32 8 -40z m2159 18 c-3 -7 -5 -2 -5 12 0 14
2 19 5 13 2 -7 2 -19 0 -25z m-230 0 c-3 -8 -6 -5 -6 6 -1 11 2 17 5 13 3 -3
4 -12 1 -19z m548 -25 c-9 -15 -13 -19 -10 -8 4 11 10 29 13 40 3 11 7 14 9 8
3 -7 -3 -24 -12 -40z m139 -25 c-18 -55 -61 -148 -69 -148 -5 0 -3 5 34 85 12
27 28 69 34 93 6 24 13 39 15 33 2 -6 -4 -35 -14 -63z m-1277 30 c-3 -8 -6 -5
-6 6 -1 11 2 17 5 13 3 -3 4 -12 1 -19z m820 -30 c-3 -7 -5 -2 -5 12 0 14 2
19 5 13 2 -7 2 -19 0 -25z m-1983 -15 c9 -18 14 -33 12 -33 -6 0 -36 55 -36
66 0 11 5 3 24 -33z m-154 -8 c0 -5 -5 -3 -10 5 -5 8 -10 20 -10 25 0 6 5 3
10 -5 5 -8 10 -19 10 -25z m2431 -8 c-10 -9 -11 -8 -5 6 3 10 9 15 12 12 3 -3
0 -11 -7 -18z m-21 -37 c-6 -11 -13 -20 -16 -20 -2 0 0 9 6 20 6 11 13 20 16
20 2 0 0 -9 -6 -20z m-2210 -21 c15 -28 5 -23 -15 7 -9 15 -12 23 -6 20 6 -4
16 -16 21 -27z m1937 -66 c-2 -21 -4 -6 -4 32 0 39 2 55 4 38 2 -18 2 -50 0
-70z m-2083 22 c15 -27 20 -41 11 -30 -19 22 -63 106 -48 90 5 -5 22 -32 37
-60z m2336 31 c0 -2 -8 -10 -17 -17 -16 -13 -17 -12 -4 4 13 16 21 21 21 13z
m-2060 -123 c0 -8 -55 35 -80 63 -14 16 -2 9 28 -16 28 -24 52 -45 52 -47z
m1977 32 c-31 -30 -67 -59 -80 -65 -14 -7 -11 -2 8 12 17 12 50 42 75 65 25
23 47 42 50 42 3 0 -21 -24 -53 -54z m202 18 c-85 -112 -166 -181 -274 -236
-70 -35 -173 -59 -236 -54 l-54 3 57 2 c164 5 339 96 458 237 30 36 56 65 58
65 3 0 -2 -8 -9 -17z m-1612 -85 c-2 -18 -4 -6 -4 27 0 33 2 48 4 33 2 -15 2
-42 0 -60z m-733 -4 c87 -82 185 -137 311 -173 39 -11 61 -20 49 -20 -31 -1
-155 43 -224 80 -50 26 -237 187 -220 188 3 1 41 -33 84 -75z m1153 34 c-3 -7
-5 -2 -5 12 0 14 2 19 5 13 2 -7 2 -19 0 -25z m820 -5 c-3 -10 -5 -4 -5 12 0
17 2 24 5 18 2 -7 2 -21 0 -30z m-1440 -60 c-2 -16 -4 -3 -4 27 0 30 2 43 4
28 2 -16 2 -40 0 -55z m-282 19 c-5 -5 -63 26 -69 37 -4 5 12 0 33 -12 22 -12
38 -23 36 -25z m56 -17 c19 -8 27 -14 19 -14 -14 0 -72 28 -59 29 4 0 22 -7
40 -15z m1704 5 c-3 -5 -12 -10 -18 -10 -7 0 -6 4 3 10 19 12 23 12 15 0z
m-858 -32 c-3 -7 -5 -2 -5 12 0 14 2 19 5 13 2 -7 2 -19 0 -25z m-718 -4 c9
-8 -55 -2 -74 6 -13 6 -5 7 25 3 25 -3 47 -7 49 -9z m74 -11 c-13 -2 -33 -2
-45 0 -13 2 -3 4 22 4 25 0 35 -2 23 -4z m380 0 c-29 -2 -77 -2 -105 0 -29 2
-6 3 52 3 58 0 81 -1 53 -3z m264 -35 c-3 -7 -5 -2 -5 12 0 14 2 19 5 13 2 -7
2 -19 0 -25z m623 -94 c0 -2 -9 -4 -20 -4 -11 0 -20 4 -20 9 0 5 9 7 20 4 11
-3 20 -7 20 -9z m-1282 -1 c-21 -2 -55 -2 -75 0 -21 2 -4 4 37 4 41 0 58 -2
38 -4z m287 0 c-95 -7 -215 -7 -215 0 0 4 57 6 128 5 70 -1 109 -3 87 -5z m93
0 c-10 -2 -26 -2 -35 0 -10 3 -2 5 17 5 19 0 27 -2 18 -5z m225 0 c-35 -2 -91
-2 -125 0 -35 2 -7 3 62 3 69 0 97 -1 63 -3z"/>
<path d="M6796 6159 c-21 -5 -65 -23 -97 -41 -235 -125 -286 -476 -95 -657 87
-81 169 -111 306 -111 107 0 251 39 244 65 -1 6 -5 39 -9 76 l-6 65 -59 -29
c-143 -71 -315 -32 -386 88 -60 104 -38 266 48 339 85 74 229 88 336 33 30
-15 54 -27 55 -27 1 0 1 37 0 82 -1 54 -6 84 -15 89 -50 32 -237 48 -322 28z
m141 -115 c-3 -3 -12 -4 -19 -1 -8 3 -5 6 6 6 11 1 17 -2 13 -5z m-147 -39
c-14 -8 -29 -14 -35 -14 -5 0 1 6 15 14 14 8 30 14 35 14 6 0 -1 -6 -15 -14z
m330 -15 c0 -5 -2 -10 -4 -10 -3 0 -8 5 -11 10 -3 6 -1 10 4 10 6 0 11 -4 11
-10z m-380 -14 c0 -2 -8 -10 -17 -17 -16 -13 -17 -12 -4 4 13 16 21 21 21 13z
m-45 -564 c-3 -3 -11 0 -18 7 -9 10 -8 11 6 5 10 -3 15 -9 12 -12z m435 -2
c-8 -5 -19 -10 -25 -10 -5 0 -3 5 5 10 8 5 20 10 25 10 6 0 3 -5 -5 -10z
m-107 -37 c-7 -2 -19 -2 -25 0 -7 3 -2 5 12 5 14 0 19 -2 13 -5z m-85 -10
c-16 -2 -40 -2 -55 0 -16 2 -3 4 27 4 30 0 43 -2 28 -4z"/>
<path d="M4770 5765 l0 -395 253 0 252 0 -1 67 -2 68 -166 3 -166 2 0 95 0 95
155 0 155 0 0 70 0 70 -155 0 -155 0 0 90 0 90 168 0 167 0 -3 70 -4 70 -249
0 -249 0 0 -395z m288 268 c-21 -2 -57 -2 -80 0 -24 2 -7 4 37 4 44 0 63 -2
43 -4z m202 -643 c0 -6 -28 -9 -67 -8 l-68 1 65 7 c36 4 66 7 68 8 1 1 2 -2 2
-8z m-317 -7 c-29 -2 -78 -2 -110 0 -32 2 -8 3 52 3 61 0 87 -1 58 -3z m150 0
c-18 -2 -48 -2 -65 0 -18 2 -4 4 32 4 36 0 50 -2 33 -4z"/>
<path d="M5430 5766 l0 -396 85 0 85 0 0 139 0 139 40 4 39 3 93 -142 93 -143
104 0 103 0 -24 33 c-14 17 -66 89 -116 159 -78 109 -89 128 -73 133 48 15
104 68 128 122 22 47 25 65 21 125 -7 93 -40 141 -123 183 -60 30 -61 30 -257
34 l-198 3 0 -396z m288 277 c-21 -2 -57 -2 -80 0 -24 2 -7 4 37 4 44 0 63 -2
43 -4z m31 -24 c66 -14 91 -44 91 -109 0 -85 -42 -116 -167 -123 l-73 -4 0
123 0 124 50 0 c27 0 72 -5 99 -11z m82 -16 c13 -16 12 -17 -3 -4 -10 7 -18
15 -18 17 0 8 8 3 21 -13z m109 -239 c-8 -8 -23 -20 -34 -25 -13 -7 -9 -1 9
15 34 29 43 33 25 10z m-282 -91 c-10 -2 -28 -2 -40 0 -13 2 -5 4 17 4 22 1
32 -1 23 -4z m292 -286 l65 -3 -71 -2 c-59 -2 -73 1 -78 14 -5 13 -3 14 7 6 7
-6 42 -13 77 -15z m-370 3 c0 -6 -26 -9 -62 -8 l-63 1 60 7 c33 4 61 7 63 8 1
1 2 -2 2 -8z"/>
<path d="M6180 5765 l0 -395 85 0 85 0 0 395 0 395 -85 0 -85 0 0 -395z m128
-382 c-21 -2 -55 -2 -75 0 -21 2 -4 4 37 4 41 0 58 -2 38 -4z"/>
<path d="M7300 5765 l0 -395 85 0 85 0 0 191 0 192 26 -39 c15 -21 76 -108
136 -191 l109 -153 104 0 105 0 -121 163 c-66 89 -135 182 -154 207 l-33 45
85 105 c47 58 116 142 154 188 l69 82 -103 0 -104 0 -138 -180 c-76 -99 -139
-180 -139 -180 -1 0 0 81 2 180 l3 180 -86 0 -85 0 0 -395z m610 371 c0 -2 -8
-10 -17 -17 -16 -13 -17 -12 -4 4 13 16 21 21 21 13z m-40 -50 c0 -2 -8 -10
-17 -17 -16 -13 -17 -12 -4 4 13 16 21 21 21 13z m-130 -160 c0 -2 -8 -10 -17
-17 -16 -13 -17 -12 -4 4 13 16 21 21 21 13z m-50 -60 c0 -2 -8 -10 -17 -17
-16 -13 -17 -12 -4 4 13 16 21 21 21 13z m-39 -333 c13 -16 12 -17 -3 -4 -10
7 -18 15 -18 17 0 8 8 3 21 -13z m174 -146 l70 -3 -71 -2 c-58 -2 -74 1 -85
16 -12 15 -12 16 1 5 9 -7 47 -14 85 -16z m-407 -4 c-21 -2 -55 -2 -75 0 -21
2 -4 4 37 4 41 0 58 -2 38 -4z"/>
<path d="M3135 5740 c-2 -3 -3 -285 -2 -627 l0 -623 134 0 133 0 0 628 0 627
-131 0 c-72 0 -132 -2 -134 -5z m253 -487 l-3 -478 -2 472 -3 472 -118 4 -117
3 123 2 122 2 -2 -477z m-231 -156 c-1 -111 -2 -17 -2 208 0 226 1 316 2 202
2 -115 2 -299 0 -410z m113 -577 l109 0 4 128 3 127 2 -132 2 -133 -120 0
-120 0 2 193 3 192 2 -187 3 -188 110 0z"/>
<path d="M6413 5112 c-46 -2 -63 -7 -68 -20 -34 -86 -135 -375 -140 -405 -8
-42 -20 -41 -30 2 -7 34 -130 374 -145 402 -9 16 -22 19 -75 19 l-64 0 18 -42
c9 -24 41 -110 69 -193 29 -82 72 -202 96 -265 l43 -115 73 0 73 0 109 309
c60 170 107 309 106 310 -2 1 -31 0 -65 -2z m-262 -600 c-7 -2 -18 1 -23 6 -8
8 -4 9 13 5 13 -4 18 -8 10 -11z m76 2 c-3 -3 -12 -4 -19 -1 -8 3 -5 6 6 6 11
1 17 -2 13 -5z"/>
<path d="M8410 5102 c-73 -27 -116 -59 -149 -109 -40 -60 -55 -112 -55 -193 0
-130 62 -233 172 -287 49 -24 69 -28 142 -28 73 0 93 4 142 28 131 64 198 205
168 354 -21 101 -78 176 -173 225 -57 29 -183 35 -247 10z m49 -86 c-2 -2 -15
-9 -29 -15 -24 -11 -24 -11 -6 3 16 13 49 24 35 12z m136 -25 c51 -23 92 -71
101 -117 3 -19 4 -63 2 -99 -3 -53 -9 -71 -34 -102 -73 -91 -199 -99 -276 -17
-37 40 -48 74 -48 149 0 101 28 150 105 186 51 24 99 24 150 0z m66 -17 c9
-11 2 -9 -18 6 -18 13 -33 25 -33 27 0 8 38 -17 51 -33z m-261 13 c0 -2 -10
-12 -22 -23 l-23 -19 19 23 c18 21 26 27 26 19z m-90 -402 c13 -14 21 -25 18
-25 -2 0 -15 11 -28 25 -13 14 -21 25 -18 25 2 0 15 -11 28 -25z m440 12 c0
-2 -12 -14 -27 -28 l-28 -24 24 28 c23 25 31 32 31 24z m-351 -73 c14 -12 -19
-1 -35 12 -18 14 -18 14 6 3 14 -6 27 -13 29 -15z m277 11 c-11 -8 -25 -15
-30 -15 -6 1 0 7 14 15 32 19 40 18 16 0z m-129 -32 c-20 -2 -52 -2 -70 0 -17
2 0 4 38 4 39 0 53 -2 32 -4z"/>
<path d="M4770 4800 l0 -310 65 0 66 0 -3 209 c-2 115 0 207 3 205 4 -2 64
-96 135 -209 l129 -205 63 0 62 0 0 310 0 310 -65 0 -66 0 3 -195 c2 -107 1
-195 -2 -195 -3 0 -17 21 -33 48 -15 26 -70 113 -123 195 l-96 147 -69 0 -69
0 0 -310z m507 -286 c-3 -3 -12 -4 -19 -1 -8 3 -5 6 6 6 11 1 17 -2 13 -5z"/>
<path d="M5535 4983 c-26 -71 -73 -202 -105 -293 -32 -91 -61 -173 -65 -182
-6 -16 0 -18 63 -18 l70 0 22 65 22 65 114 0 c66 0 114 -4 114 -10 0 -5 9 -34
21 -65 l20 -55 68 0 68 0 -53 153 c-30 83 -80 223 -112 309 l-57 158 -71 0
-72 0 -47 -127z m190 -235 c6 -16 0 -18 -69 -18 -42 0 -76 3 -76 7 0 5 16 57
36 117 l36 108 33 -98 c18 -55 36 -107 40 -116z m128 -235 c-7 -2 -19 -2 -25
0 -7 3 -2 5 12 5 14 0 19 -2 13 -5z"/>
<path d="M6542 4807 c-62 -166 -112 -306 -112 -310 0 -4 31 -7 69 -7 l70 0 20
55 c12 31 21 60 21 66 0 6 44 9 117 7 l117 -3 20 -62 20 -63 71 0 72 0 -57
163 c-32 89 -82 228 -111 309 l-54 148 -75 0 -76 0 -112 -303z m229 41 l38
-113 -76 -3 c-41 -2 -77 -1 -79 0 -4 5 70 237 75 232 2 -2 21 -54 42 -116z
m-278 -335 c-7 -2 -21 -2 -30 0 -10 3 -4 5 12 5 17 0 24 -2 18 -5z m60 0 c-7
-2 -21 -2 -30 0 -10 3 -4 5 12 5 17 0 24 -2 18 -5z m394 1 c-3 -3 -12 -4 -19
-1 -8 3 -5 6 6 6 11 1 17 -2 13 -5z"/>
<path d="M7100 4800 l0 -310 65 0 65 0 0 115 0 115 34 0 c33 0 38 -5 106 -115
l72 -115 74 0 74 0 -38 58 c-20 31 -56 85 -80 119 -47 69 -48 73 -27 73 28 0
92 73 105 120 26 98 -9 183 -92 224 -49 25 -61 26 -205 26 l-153 0 0 -310z
m293 190 c34 -27 44 -78 23 -118 -22 -43 -44 -52 -120 -52 l-66 0 0 95 0 95
69 0 c54 0 74 -4 94 -20z m117 -183 c0 -2 -10 -12 -22 -23 l-23 -19 19 23 c18
21 26 27 26 19z m-60 -282 c7 -9 8 -15 2 -15 -5 0 -12 7 -16 15 -3 8 -4 15 -2
15 2 0 9 -7 16 -15z m53 -12 c-7 -2 -19 -2 -25 0 -7 3 -2 5 12 5 14 0 19 -2
13 -5z m50 0 c-7 -2 -19 -2 -25 0 -7 3 -2 5 12 5 14 0 19 -2 13 -5z"/>
<path d="M7670 4800 l0 -310 65 0 65 0 0 118 0 117 36 0 c35 0 37 -2 106 -117
l71 -118 73 0 74 0 -67 108 c-36 59 -72 117 -80 128 -12 20 -11 22 16 33 83
35 123 148 86 238 -40 95 -84 112 -287 113 l-158 0 0 -310z m285 220 c3 -6 -1
-7 -9 -4 -18 7 -21 14 -7 14 6 0 13 -4 16 -10z m16 -39 c31 -31 35 -53 19 -95
-13 -36 -59 -56 -130 -56 l-60 0 0 90 0 90 71 0 c65 0 73 -2 100 -29z m20 12
c13 -16 12 -17 -3 -4 -10 7 -18 15 -18 17 0 8 8 3 21 -13z m89 -177 c0 -2 -8
-10 -17 -17 -16 -13 -17 -12 -4 4 13 16 21 21 21 13z m-217 -73 c-7 -2 -19 -2
-25 0 -7 3 -2 5 12 5 14 0 19 -2 13 -5z m176 -230 c2 -2 -3 -3 -11 -3 -9 0
-19 7 -22 16 -6 15 -4 15 11 3 10 -7 20 -15 22 -16z"/>
</g>
</svg>
